<svg aria-hidden="true" style="position: absolute; width: 0; height: 0; overflow: hidden;" version="1.1" xmlns="http://www.w3.org/2000/svg" xmlns:xlink="http://www.w3.org/1999/xlink">
<defs>
<symbol id="icon-menu-03" viewBox="0 0 32 32">
<path stroke-linejoin="round" stroke-linecap="round" stroke-miterlimit="4" stroke-width="2.2857" d="M4 16h24M4 8h24M4 24h24"></path>
</symbol>
<symbol id="icon-chocolate" viewBox="0 0 31 32">
<path fill="#e2e2e2" style="fill: var(--color1, #e2e2e2)" d="M0 0h30.545v32h-30.545v-32z"></path>
<path fill="#ffffff" style="fill: var(--color2, #ffffff)" d="M-244.364-33.455h545.455v10530.909h-545.455v-10530.909z"></path>
<path fill="#fcf1e0" style="fill: var(--color3, #fcf1e0)" d="M3.765 19.89l10.287-16.632 0.611-0.643 7.862 5.242 0.054 3.163 1.919 3.13-8.476 13.437-12.256-7.696z"></path>
<path fill="none" stroke="#fd9222" style="stroke: var(--color4, #fd9222)" stroke-linejoin="round" stroke-linecap="round" stroke-miterlimit="4" stroke-width="2.6182" d="M20.651 23.521l-13.541-8.461M10.844 8.935l13.541 8.461M10.147 25.416l11.202-18.375M25.941 14.844c-2.902-1.813-4.041-3.23-2.174-6.293l-9.188-5.742-11.202 18.375 13.541 8.461 9.024-14.802z"></path>
</symbol>
<symbol id="icon-instagram" viewBox="0 0 32 32">
<path stroke-linejoin="round" stroke-linecap="round" stroke-miterlimit="4" stroke-width="2.6667" d="M22.667 2.667h-13.333c-3.682 0-6.667 2.985-6.667 6.667v13.333c0 3.682 2.985 6.667 6.667 6.667h13.333c3.682 0 6.667-2.985 6.667-6.667v-13.333c0-3.682-2.985-6.667-6.667-6.667z"></path>
<path stroke-linejoin="round" stroke-linecap="round" stroke-miterlimit="4" stroke-width="2.6667" d="M21.333 15.16c0.165 1.11-0.025 2.243-0.542 3.239s-1.334 1.803-2.336 2.307c-1.002 0.504-2.138 0.68-3.245 0.502s-2.131-0.701-2.924-1.494-1.316-1.816-1.494-2.924c-0.178-1.108-0.003-2.243 0.502-3.245s1.312-1.819 2.307-2.336c0.996-0.517 2.129-0.706 3.239-0.542 1.132 0.168 2.18 0.695 2.989 1.504s1.337 1.857 1.505 2.989z"></path>
<path stroke-linejoin="round" stroke-linecap="round" stroke-miterlimit="4" stroke-width="2.6667" d="M23.333 8.667h0.013"></path>
</symbol>
<symbol id="icon-twitter" viewBox="0 0 32 32">
<path stroke-linejoin="round" stroke-linecap="round" stroke-miterlimit="4" stroke-width="2.6667" d="M30.667 4c-1.277 0.901-2.691 1.589-4.187 2.040-0.803-0.923-1.87-1.578-3.057-1.875s-2.437-0.222-3.58 0.214c-1.143 0.436-2.125 1.213-2.812 2.226s-1.047 2.212-1.031 3.435v1.333c-2.343 0.061-4.665-0.459-6.759-1.513s-4.561-3.563-5.908-5.481c0 0-4.667 12.954 7.333 18.287-2.746 1.864-6.017 2.799-9.333 2.667 12 6.667 26.667 0 26.667-15.333-0.001-0.371-0.037-0.742-0.107-1.107 1.361-1.342 2.321-3.036 2.773-4.893z"></path>
</symbol>
<symbol id="icon-2" viewBox="0 0 32 32">
<path fill="#fff" style="fill: var(--color1, #fff)" d="M16 32c8.837 0 16-7.163 16-16s-7.163-16-16-16c-8.837 0-16 7.163-16 16s7.163 16 16 16z"></path>
<path fill="#fd9222" style="fill: var(--color2, #fd9222)" d="M16.541 17.067c-0.138 0.139-0.329 0.225-0.541 0.225s-0.402-0.086-0.541-0.225l-0-0-3.49-3.497c-0.139-0.147-0.336-0.238-0.554-0.238-0.421 0-0.762 0.341-0.762 0.762 0 0.216 0.090 0.411 0.234 0.55l3.497 3.497c0.413 0.413 0.984 0.668 1.615 0.668s1.201-0.255 1.615-0.668l3.497-3.497c0.129-0.136 0.209-0.321 0.209-0.524 0-0.421-0.341-0.762-0.762-0.762-0.205 0-0.391 0.081-0.528 0.212l0-0-3.49 3.497z"></path>
</symbol>
<symbol id="icon-la_utensil-spoon" viewBox="0 0 32 32">
<path fill="#fd9222" style="fill: var(--color1, #fd9222)" d="M15.451 14.106c-0.732-0.884-1.176-2.029-1.176-3.278 0-0.001 0-0.003 0-0.004v0c0-4.324 5.181-8.642 10.362-8.642 2.861 0.001 5.18 2.321 5.181 5.182v0c0 5.182-4.317 10.364-8.646 10.364-0.001 0-0.002 0-0.003 0-1.249 0-2.395-0.444-3.287-1.184l0.009 0.007-12.758 12.761c-0.308 0.287-0.723 0.463-1.178 0.463-0.955 0-1.73-0.775-1.73-1.73 0-0.456 0.176-0.87 0.464-1.179l-0.001 0.001 12.764-12.761z"></path>
</symbol>
<symbol id="icon-Coin" viewBox="0 0 32 32">
<path fill="#fd9222" style="fill: var(--color1, #fd9222)" d="M16 2.667c-7.333 0-13.333 6-13.333 13.333s6 13.333 13.333 13.333 13.333-6 13.333-13.333-6-13.333-13.333-13.333zM16 26.667c-5.867 0-10.667-4.8-10.667-10.667s4.8-10.667 10.667-10.667 10.667 4.8 10.667 10.667-4.8 10.667-10.667 10.667z"></path>
<path fill="#fd9222" style="fill: var(--color1, #fd9222)" d="M17.733 14.667h-3.466c-0.667 0-1.2-0.534-1.2-1.2 0-0.667 0.533-1.2 1.2-1.2h4.933c0.8 0 1.333-0.534 1.333-1.334s-0.533-1.333-1.333-1.333h-1.867v-1.2c0-0.8-0.533-1.333-1.333-1.333s-1.333 0.533-1.333 1.333v1.2h-0.4c-2.135 0.002-3.865 1.732-3.867 3.867v0c0.002 2.135 1.732 3.864 3.867 3.866h3.333c0.667 0 1.2 0.534 1.2 1.2 0 0.667-0.533 1.2-1.2 1.2h-4.933c-0.8 0-1.334 0.534-1.334 1.334s0.534 1.333 1.334 1.333h2v1.2c0 0.8 0.533 1.333 1.333 1.333s1.333-0.533 1.333-1.333v-1.2h0.4c2.135-0.002 3.865-1.732 3.867-3.867v-0c-0.002-2.135-1.732-3.864-3.867-3.866h-0z"></path>
</symbol>
<symbol id="icon-fluent-emoji-high-contrast_chocolate-bar" viewBox="0 0 32 32">
<path fill="#000" style="fill: var(--color2, #000)" d="M13.822 2.413l7.527 7.536 0.080-0.080c0.154-0.151 0.366-0.244 0.599-0.244 0.227 0 0.433 0.088 0.586 0.232l-0-0 0.873 0.873c0.305 0.305 0.315 0.77 0.083 1.094l-0.004 0.007-0.143 0.192 6.16 6.16c0.55 0.55 0.55 1.43 0 1.98l-9.43 9.43c-0.55 0.55-1.43 0.55-1.98 0l-4.447-4.447c-0.155 0.195-0.393 0.319-0.659 0.319-0.233 0-0.444-0.095-0.596-0.248l-2.6-2.6c-0.151-0.154-0.244-0.366-0.244-0.599 0-0.227 0.088-0.433 0.232-0.586l-0 0 0.006-0.007 0.077-0.076-7.527-7.527c-0.55-0.55-0.55-1.43 0-1.98l9.43-9.43c0.55-0.55 1.43-0.55 1.98 0v0.001zM20.404 10.893l-1.756-1.755c-0.108-0.111-0.258-0.18-0.425-0.18s-0.317 0.069-0.425 0.18l-3.58 3.58c-0.111 0.11-0.179 0.262-0.179 0.43s0.068 0.32 0.179 0.43l1.749 1.749 0.61-0.61-1.565-1.565 3.21-3.22 1.569 1.574 0.613-0.613zM15.328 15.965l-1.754-1.754c-0.108-0.111-0.258-0.18-0.425-0.18s-0.317 0.069-0.425 0.18l-3.59 3.59c-0.24 0.23-0.24 0.61 0 0.85l1.752 1.752 0.616-0.616-1.57-1.564 3.22-3.21 1.564 1.563 0.612-0.611zM8.822 8.193l3.58 3.58c0.24 0.24 0.62 0.24 0.85-0.010l3.58-3.58c0.111-0.106 0.18-0.255 0.18-0.42 0-0 0-0 0-0v0h0.010c0-0.15-0.060-0.31-0.18-0.43l-3.58-3.58c-0.11-0.111-0.262-0.18-0.43-0.18s-0.32 0.069-0.43 0.18l-0 0-3.58 3.59c-0.24 0.23-0.24 0.61 0 0.85zM3.752 13.263l3.58 3.58c0.24 0.24 0.62 0.24 0.85 0l3.58-3.58c0.111-0.106 0.18-0.255 0.18-0.42 0-0.004-0-0.007-0-0.010v0.001h0.010c0-0.16-0.060-0.31-0.18-0.43l-3.58-3.58c-0.108-0.111-0.258-0.18-0.425-0.18s-0.317 0.069-0.425 0.18l-3.59 3.59c-0.24 0.23-0.24 0.61 0 0.85zM10.685 22.017l2.362 2.363 9.636-13.040-0.655-0.655-11.343 11.332z"></path>
<path fill="#fd9222" style="fill: var(--color1, #fd9222)" d="M13.822 2.413l7.527 7.536 0.080-0.080c0.154-0.151 0.366-0.244 0.599-0.244 0.227 0 0.433 0.088 0.586 0.232l-0-0 0.873 0.873c0.305 0.305 0.315 0.77 0.083 1.094l-0.004 0.007-0.143 0.192 6.16 6.16c0.55 0.55 0.55 1.43 0 1.98l-9.43 9.43c-0.55 0.55-1.43 0.55-1.98 0l-4.447-4.447c-0.155 0.195-0.393 0.319-0.659 0.319-0.233 0-0.444-0.095-0.596-0.248l-2.6-2.6c-0.151-0.154-0.244-0.366-0.244-0.599 0-0.227 0.088-0.433 0.232-0.586l-0 0 0.006-0.007 0.077-0.076-7.527-7.527c-0.55-0.55-0.55-1.43 0-1.98l9.43-9.43c0.55-0.55 1.43-0.55 1.98 0v0.001zM20.404 10.893l-1.756-1.755c-0.108-0.111-0.258-0.18-0.425-0.18s-0.317 0.069-0.425 0.18l-3.58 3.58c-0.111 0.11-0.179 0.262-0.179 0.43s0.068 0.32 0.179 0.43l1.749 1.749 0.61-0.61-1.565-1.565 3.21-3.22 1.569 1.574 0.613-0.613zM15.328 15.965l-1.754-1.754c-0.108-0.111-0.258-0.18-0.425-0.18s-0.317 0.069-0.425 0.18l-3.59 3.59c-0.24 0.23-0.24 0.61 0 0.85l1.752 1.752 0.616-0.616-1.57-1.564 3.22-3.21 1.564 1.563 0.612-0.611zM8.822 8.193l3.58 3.58c0.24 0.24 0.62 0.24 0.85-0.010l3.58-3.58c0.111-0.106 0.18-0.255 0.18-0.42 0-0 0-0 0-0v0h0.010c0-0.15-0.060-0.31-0.18-0.43l-3.58-3.58c-0.11-0.111-0.262-0.18-0.43-0.18s-0.32 0.069-0.43 0.18l-0 0-3.58 3.59c-0.24 0.23-0.24 0.61 0 0.85zM3.752 13.263l3.58 3.58c0.24 0.24 0.62 0.24 0.85 0l3.58-3.58c0.111-0.106 0.18-0.255 0.18-0.42 0-0.004-0-0.007-0-0.010v0.001h0.010c0-0.16-0.060-0.31-0.18-0.43l-3.58-3.58c-0.108-0.111-0.258-0.18-0.425-0.18s-0.317 0.069-0.425 0.18l-3.59 3.59c-0.24 0.23-0.24 0.61 0 0.85zM10.685 22.017l2.362 2.363 9.636-13.040-0.655-0.655-11.343 11.332z"></path>
</symbol>
<symbol id="icon-Input-right-section" viewBox="0 0 49 32">
<path fill="#fafafa" style="fill: var(--color1, #fafafa)" d="M6.095 0.762h36.571c2.946 0 5.333 2.388 5.333 5.333v19.81c0 2.946-2.388 5.333-5.333 5.333h-36.571c-2.946 0-5.333-2.388-5.333-5.333v-19.81c0-2.946 2.388-5.333 5.333-5.333z"></path>
<path fill="#ed0006" style="fill: var(--color2, #ed0006)" d="M24.381 23.29c-1.765 1.461-4.051 2.347-6.545 2.347-0.012 0-0.024-0-0.035-0h0.002c-5.6 0-10.139-4.398-10.139-9.819s4.539-9.818 10.139-9.818c2.511 0 4.808 0.884 6.578 2.347 1.765-1.461 4.051-2.347 6.545-2.347 0.012 0 0.024 0 0.035 0h-0.002c5.6 0 10.139 4.396 10.139 9.818s-4.539 9.818-10.139 9.818c-0.011 0-0.023 0-0.035 0-2.493 0-4.779-0.886-6.56-2.359l0.017 0.014z"></path>
<path fill="#f9a000" style="fill: var(--color3, #f9a000)" d="M24.381 23.29c2.179-1.801 3.563-4.48 3.563-7.473 0-2.991-1.382-5.672-3.563-7.471 1.765-1.461 4.051-2.347 6.545-2.347 0.012 0 0.024 0 0.035 0h-0.002c5.6 0 10.139 4.396 10.139 9.818s-4.539 9.818-10.139 9.818c-0.011 0-0.023 0-0.035 0-2.493 0-4.779-0.886-6.56-2.359l0.017 0.014z"></path>
<path fill="#ff5e00" style="fill: var(--color4, #ff5e00)" d="M24.381 23.29c2.179-1.801 3.563-4.48 3.563-7.473 0-2.991-1.382-5.672-3.563-7.471-2.179 1.8-3.563 4.48-3.563 7.471 0 2.993 1.382 5.672 3.563 7.473z"></path>
<path fill="none" stroke="#fafafa" style="stroke: var(--color1, #fafafa)" stroke-linejoin="miter" stroke-linecap="butt" stroke-miterlimit="4" stroke-width="1.5238" d="M6.095 0.762h36.571c2.946 0 5.333 2.388 5.333 5.333v19.81c0 2.946-2.388 5.333-5.333 5.333h-36.571c-2.946 0-5.333-2.388-5.333-5.333v-19.81c0-2.946 2.388-5.333 5.333-5.333z"></path>
</symbol>
<symbol id="icon-LeftIcon" viewBox="0 0 31 32">
<path fill="#ffd700" style="fill: var(--color5, #ffd700)" d="M30.559 5.496h-30.326v22.568h30.326v-22.568z"></path>
<path fill="#0057b7" style="fill: var(--color6, #0057b7)" d="M0.233 5.496h30.326v11.284h-30.326v-11.286z"></path>
</symbol>
<symbol id="icon-x-close" viewBox="0 0 32 32">
<path stroke-linejoin="round" stroke-linecap="round" stroke-miterlimit="4" stroke-width="2.6667" d="M24 8l-16 16M8 8l16 16"></path>
</symbol>
</defs>
</svg>
